<svg width="200" height="200" viewBox="0 0 200 200" fill="none" xmlns="http://www.w3.org/2000/svg">
<path d="M173.962 62.4793H166.755C166.625 56.6069 165.457 51.9967 164.037 51.8658L162.281 51.8581C161.632 49.403 160.777 47.8714 159.838 47.7867V47.7713H152.769V47.7867C152.769 47.7867 152.692 47.7713 152.654 47.7713C150.662 47.7713 149.028 54.2594 148.891 62.4716H141.455L141.195 61.6788C141.096 61.3864 140.821 61.194 140.516 61.2017C140.325 61.2017 140.142 61.117 140.035 60.9554C139.905 60.763 139.676 60.6706 139.454 60.7168L139.057 60.8014C138.897 60.8399 138.729 60.8015 138.599 60.7014C138.233 60.4089 137.737 60.3397 137.302 60.5167C137.172 60.5706 137.05 60.6167 136.95 60.6629C136.782 60.7399 136.584 60.7322 136.424 60.6398L136.019 60.3935C135.973 60.3628 135.92 60.3397 135.859 60.3243C134.843 60.0934 133.889 61.4172 133.316 62.4716H108.665C108.634 62.4254 108.604 62.3792 108.573 62.3331C108.161 61.6481 107.963 60.7861 108.199 60.0164C108.489 59.0543 109.375 58.4078 109.841 57.5228C110.49 56.3067 110.222 54.6674 109.222 53.7207C109.917 54.3364 110.803 54.7289 111.719 54.829C110.032 53.205 109.215 50.8807 108.657 48.6025C108.1 46.3244 107.749 43.9615 106.764 41.8296C105.901 39.9517 104.329 38.1815 102.283 38.0122C101.076 37.9121 99.832 38.4355 99.0533 39.3744C98.6029 39.9209 98.3128 40.5905 98.2059 41.2909C98.1907 41.2909 98.1754 41.2909 98.1677 41.2909C93.3734 41.9528 91.8312 45.5855 92.1977 50.9653C91.877 55.437 93.5795 55.2138 93.5795 55.2138C94.091 58.0769 95.4728 59.4546 95.9462 59.8548V59.8702C96.137 60.2088 96.2439 60.5783 96.2897 60.9477C96.1065 61.371 95.8774 61.7712 95.6026 62.1022C95.5186 62.2099 95.4041 62.333 95.2667 62.4716H66.6454C66.0728 61.4172 65.1109 60.1011 64.1032 60.3243C64.0497 60.3397 63.9963 60.3628 63.9428 60.3935L63.5382 60.6398C63.3779 60.7399 63.1794 60.7476 63.0115 60.6629C62.9122 60.6167 62.7901 60.5629 62.6603 60.5167C62.2251 60.3474 61.7365 60.4089 61.3624 60.7014C61.2326 60.8091 61.0647 60.8476 60.9044 60.8091L60.5074 60.7245C60.286 60.6783 60.0569 60.7707 59.9272 60.9631C59.8203 61.1247 59.6371 61.2171 59.4462 61.2094C59.1408 61.194 58.866 61.3941 58.7667 61.6865L58.5072 62.4793H51.0713C50.9339 54.2671 49.3077 47.779 47.3075 47.779C47.2694 47.779 47.2312 47.779 47.193 47.7944V47.779H40.1236V47.7944C39.1846 47.879 38.3295 49.4107 37.6806 51.8658H35.9247C34.4971 52.0121 33.3366 56.6223 33.2068 62.487H26V64.9114H33.2145C33.3672 70.7684 34.5581 75.3247 35.9934 75.3247C36.0545 75.3247 36.1079 75.317 36.169 75.3016H37.673C38.3448 77.8569 39.2304 79.4116 40.2076 79.4116C40.2839 79.4116 40.3603 79.3962 40.4442 79.3808H47.0785C47.1549 79.4039 47.2312 79.4116 47.3152 79.4116C49.2925 79.4116 50.911 73.0312 51.0713 64.9114H58.9118L58.9347 65.0114L58.8584 66.5276C58.8049 67.5205 59.1408 68.4902 59.7821 69.2368C61.4922 71.2225 65.088 75.2478 68.1112 77.7029C69.1037 78.5034 70.203 79.1576 71.3711 79.6655L74.3332 80.9432L75.57 81.7205C76.2037 82.1207 76.9824 82.2054 77.6924 81.9591C79.601 81.2818 83.5021 79.5732 86.594 76.1559C86.8994 76.8178 87.2735 77.6491 87.6094 78.4033C87.2888 79.6425 86.9529 82.9365 88.7088 87.1388C90.0295 90.7639 90.0524 95.4279 89.4722 100.569C89.4722 100.569 84.8305 109.705 84.5404 114.384C84.5404 114.384 77.6007 133.364 79.4254 141.507C79.4254 141.507 77.7763 145.886 77.9519 148.949C75.4326 155.299 75.883 166.228 77.6924 179.25L77.5168 180.736C77.0816 181.121 76.8526 181.69 76.8984 182.275L76.9976 183.537C76.9976 183.537 76.6464 185.723 74.8295 188.094C74.8295 188.094 72.6155 189.594 72.9819 191.819C72.9819 191.819 72.6689 192.758 72.9209 193.25C75.8143 194.212 78.8833 194.243 82.1356 193.373L82.3188 192.434C82.3188 192.434 84.7923 192.373 84.6091 190.941L83.8686 189.379C83.8686 189.379 83.7464 188.44 83.3113 188.009C83.3113 188.009 83.4945 184.145 82.8761 182.768L82.9982 176.534C84.7923 167.552 86.9605 165.558 85.4107 152.467C85.4107 152.467 87.3269 149.788 87.7621 146.356C91.6175 135.673 96.6561 121.588 100 121.404C103.344 121.596 108.375 135.681 112.238 146.356C112.673 149.788 114.589 152.467 114.589 152.467C113.04 165.558 115.208 167.559 117.002 176.534L117.124 182.768C116.506 184.138 116.689 188.009 116.689 188.009C116.254 188.448 116.131 189.379 116.131 189.379L115.391 190.941C115.208 192.373 117.681 192.434 117.681 192.434L117.864 193.373C121.117 194.243 124.193 194.212 127.079 193.25C127.323 192.75 127.018 191.819 127.018 191.819C127.385 189.594 125.171 188.094 125.171 188.094C123.346 185.731 123.002 183.537 123.002 183.537L123.102 182.275C123.147 181.69 122.918 181.121 122.483 180.736L122.308 179.25C124.117 166.228 124.567 155.299 122.048 148.949C122.224 145.886 120.575 141.507 120.575 141.507C122.399 133.364 115.46 114.384 115.46 114.384C115.177 109.705 110.528 100.569 110.528 100.569C109.948 95.4202 109.97 90.7562 111.291 87.1388C113.04 82.9442 112.704 79.6425 112.391 78.4033C112.734 77.6491 113.108 76.8255 113.406 76.1559C116.498 79.5732 120.399 81.2818 122.308 81.9591C123.018 82.2131 123.796 82.1207 124.43 81.7205L125.667 80.9432L128.629 79.6655C129.797 79.1576 130.896 78.5111 131.889 77.7029C134.912 75.2478 138.5 71.2225 140.218 69.2368C140.867 68.4902 141.195 67.5128 141.142 66.5276L141.065 65.0114L141.088 64.9114H148.929C149.089 73.0312 150.708 79.4116 152.685 79.4116C152.761 79.4116 152.838 79.3962 152.921 79.3808H159.556C159.632 79.4039 159.708 79.4116 159.792 79.4116C160.77 79.4116 161.655 77.8569 162.327 75.3016H163.831C163.892 75.317 163.946 75.3247 164.007 75.3247C165.442 75.3247 166.633 70.7684 166.786 64.9114H174V62.487L173.962 62.4793ZM105.817 60.8168C105.871 60.2935 105.97 59.6932 106.146 59.0005C106.13 60.7707 106.535 61.8328 107.062 62.4793H106.069C105.856 61.9636 105.764 61.4018 105.825 60.8168H105.817ZM84.4793 66.3044C82.5326 67.4974 81.3263 69.1675 80.8759 71.3302C80.8759 71.3302 78.5245 72.7002 76.8526 74.2626C71.1802 72.3847 66.3019 70.3374 64.1719 67.6513L65.6224 67.0356C66.1339 66.8201 66.5156 66.3814 66.6531 65.8426C66.7294 65.5502 66.821 65.2115 66.8974 64.896H87.6628C86.1054 65.3116 85.1588 65.8811 84.4717 66.3044H84.4793ZM133.301 65.8426C133.439 66.3814 133.82 66.8201 134.332 67.0356L135.782 67.6513C133.652 70.3297 128.774 72.3847 123.102 74.2626C121.43 72.7002 119.078 71.3302 119.078 71.3302C118.628 69.1598 117.422 67.4897 115.475 66.3044C114.788 65.8811 113.841 65.3116 112.284 64.896H133.049C133.133 65.2115 133.217 65.5502 133.294 65.8426H133.301Z" fill="black"/>
<path d="M103.284 199.952C46.565 201.678 1.51564 156.807 0.038981 102.9C-1.53612 45.4871 44.8384 -0.331308 99.9215 0.00191638C153.861 -0.331308 198.252 42.8894 199.948 96.6143C201.743 153.346 156.989 198.316 103.284 199.952ZM99.7019 6.66641C48.0644 6.90875 6.61956 48.4937 6.73315 100.068C6.85431 152.392 48.8519 193.439 100.171 193.265C153.066 193.09 193.095 150.445 193.352 100.015C192.958 47.0093 150.256 6.42406 99.7094 6.66641H99.7019Z" fill="black"/>
</svg>
