<svg width="200" height="200" viewBox="0 0 200 200" fill="none" xmlns="http://www.w3.org/2000/svg">
<path d="M103.284 0.0482291C46.565 -1.67848 1.51564 43.1932 0.038981 97.0999C-1.53612 154.513 44.8384 200.331 99.9215 199.998C153.861 200.331 198.252 157.111 199.948 103.386C201.743 46.6542 156.989 1.68406 103.284 0.0482291ZM99.7019 193.334C48.0644 193.091 6.61956 151.506 6.73315 99.9323C6.85431 47.6085 48.8519 6.56125 100.171 6.73544C153.066 6.90963 193.095 49.5548 193.352 99.9853C192.958 152.991 150.256 193.576 99.7094 193.334H99.7019Z" fill="black"/>
<path d="M66.2261 117.173C68.1018 120.165 70.5498 123.342 72.7116 125.968C75.541 129.408 78.7138 132.554 82.1727 135.353L94.3171 145.18C90.9853 148.934 89.2813 153.912 88.442 157.345C87.9524 159.35 87.7172 161.407 87.7108 163.469C87.6854 170.561 87.075 177.249 84.8369 183.892C82.408 182.95 81.5306 189.555 81.5306 189.555C80.2653 194.776 83.7369 194.334 83.7369 194.334L106.945 195C110.283 194.417 111.008 193.059 110.906 191.842C110.798 190.548 109.717 189.542 108.432 189.42L107.008 189.286C105.8 189.171 104.63 188.818 103.562 188.242L98.4118 185.468L98.4627 185.269L108.261 185.551C111.186 185.039 111.828 183.847 111.732 182.784C111.637 181.65 110.69 180.772 109.564 180.663L108.312 180.548C107.256 180.445 106.226 180.138 105.291 179.632L101.006 177.326C99.55 174.949 98.3037 173.456 97.5725 174.065C97.6361 172.547 97.8078 170.939 98.0939 169.241C101.788 173.572 107.498 176.109 113.767 175.359C121.868 174.392 128.353 167.826 129.275 159.658C129.955 153.623 127.66 148.108 123.68 144.399C123.298 139.344 120.38 135.001 116.202 132.663C116.501 130.933 117.34 128.204 118.123 125.866C119.165 122.74 119.807 119.498 120.017 116.212L120.958 101.414C121.372 100.831 122.23 98.6274 122.98 96.5775C123.731 94.5276 124.29 92.4456 124.583 90.306C124.932 87.7628 124.951 85.4758 124.697 83.3939C124.055 79.3388 128.372 75.5593 128.493 75.4696C128.741 75.2774 129.072 75.2005 129.383 75.2774C130.826 75.6169 132.168 75.8668 133.185 75.8347C134.368 75.8027 135.112 75.3927 135.061 74.3037C134.743 72.7726 135.201 72.0295 135.201 72.0295C135.856 71.722 135.258 70.838 135.258 70.838L135.519 70.159C136.225 70.0437 135.633 68.9162 135.938 68.7689L136.199 68.7496C136.275 68.7432 136.352 68.724 136.415 68.7048C136.93 68.5767 137.159 67.9681 136.879 67.5197L134.813 64.1949L135.156 63.4134C135.379 62.9137 135.404 62.3372 135.239 61.8119L134.184 58.4807C132.944 54.2592 128.633 53.3111 125.924 53.1445C124.15 53.0356 122.255 53.3047 120.659 54.1182C119.916 53.2726 119.108 52.4911 118.148 51.9081C116.724 51.0369 114.893 50.6718 113.373 51.3572C111.93 52.0042 111.001 53.4712 110.461 54.9766C109.92 56.4821 109.685 58.0708 109.138 59.5698C108.591 61.0688 107.657 62.5294 106.201 63.1636C106.811 63.2725 107.447 63.2404 108.045 63.0739C107.015 63.7081 106.455 65.0982 106.411 66.373C106.36 67.9489 106.856 69.4991 106.849 71.075C106.849 72.6509 106.124 74.4382 104.611 74.8546C106.436 74.451 108.032 73.1762 108.928 71.5299C108.795 72.8879 109.202 74.3037 110.117 75.3158C110.461 75.6938 110.868 76.0333 111.071 76.5074C105.8 78.9545 99.8679 82.6059 93.8338 87.6603C89.8599 90.7928 87.8825 91.6192 84.5825 92.7723C82.8276 93.3873 80.9965 93.7524 79.1526 93.9766C73.8497 94.6301 69.3735 97.7882 66.7666 101.171C63.1996 105.796 63.1424 112.234 66.2452 117.186L66.2261 117.173ZM115.662 74.9379C115.109 75.0404 114.549 75.1813 113.977 75.3543C115.032 73.9449 115.605 72.1577 115.433 70.396C115.344 69.4735 115.071 68.5126 115.465 67.6414C115.942 69.1596 117.137 70.5241 117.951 71.8694C119.242 74.0154 117.735 73.7143 115.668 74.9379H115.662ZM87.7045 113.669C89.1351 113.342 93.0073 112.862 94.05 112.381C96.1228 111.44 98.3101 110.76 100.567 110.485C105.857 109.832 108.986 108.474 110.83 107.115C110.982 110.351 111.192 114.796 111.224 115.078C110.601 117.16 110.162 124.22 109.876 130.843C109.621 130.831 109.361 130.824 109.1 130.824C107.04 130.824 105.082 131.253 103.308 132.029C98.6153 123.592 90.1588 116.5 87.6917 113.669H87.7045Z" fill="black"/>
</svg>
