<svg width="200" height="200" viewBox="0 0 200 200" fill="none" xmlns="http://www.w3.org/2000/svg">
<path fill-rule="evenodd" clip-rule="evenodd" d="M166.649 167.936C166.215 167.629 164.33 167.377 164.156 167.314C163.975 167.251 157.042 164.762 155.417 163.573C153.792 162.383 152.562 160.84 151.671 159.209C150.779 157.587 150.85 156.539 150.424 155.468C149.991 154.405 149.509 149.774 149.178 146.741C148.839 143.717 148.216 135.337 147.932 133.659C147.64 131.981 147.727 129.784 147.309 127.429C146.946 125.389 145.337 123.609 144.919 123.168C144.848 123.097 144.777 123.05 144.69 123.01C144.122 122.774 141.898 121.853 141.701 121.821C141.48 121.782 138.428 121.301 137.955 121.199C137.489 121.097 135.21 121.522 131.716 122.443C128.79 123.215 119.364 126.634 116.399 127.72C115.886 127.909 115.326 127.468 115.452 126.933C115.46 126.886 115.476 126.846 115.492 126.807C115.657 126.452 115.634 124.507 116.115 123.066C116.564 121.719 116.722 120.159 116.738 119.97C116.738 119.955 116.738 119.947 116.738 119.931C116.746 119.639 116.888 116.119 117.361 113.717C117.85 111.212 117.108 105.321 117.361 104.368C117.605 103.422 118.583 103.1 119.585 100.981C120.555 98.9409 120.019 98.618 118.315 97.2633C116.848 96.0897 115.066 94.0183 114.884 93.7978C114.868 93.782 114.861 93.7741 114.845 93.7584L110.073 88.9933C109.032 87.9536 108.204 86.7328 107.644 85.3781C107.234 84.3857 106.831 83.2673 106.752 82.5663C106.587 81.0462 106.855 79.7939 107.376 78.8251C107.896 77.8564 108.843 76.1551 109.923 75.6747C110.649 75.3596 113.141 74.7059 113.654 74.1624C114.427 73.3591 113.259 72.5006 112.983 72.0516C112.699 71.6027 112.502 71.6657 112.66 71.2089C112.715 71.0671 113.062 70.9568 113.102 70.8387C113.188 70.5788 112.905 70.3583 112.905 70.3583L112.203 70.3819C112.203 70.3819 112.644 70.059 112.818 69.7439C112.983 69.4446 112.715 69.295 112.502 69.2005C112.4 69.1532 112.368 69.0036 112.368 68.846C112.368 68.7121 112.321 68.7121 112.297 68.7279C112.384 68.6255 112.66 68.2081 112.834 68.1135C112.936 68.0584 112.999 67.7355 112.889 67.578C112.77 67.4126 112.076 67.3259 112.076 67.3259C112.076 67.3259 111.832 67.1684 111.114 66.9794C110.388 66.7903 109.836 66.6328 109.245 66.3572C108.645 66.0736 108.409 64.5929 107.376 63.2382C106.334 61.8835 105.057 60.9541 103.006 60.7493C100.947 60.5524 99.2595 60.7493 99.2595 60.7493C99.2595 60.7493 99.1885 60.4579 99.086 60.072C98.7547 58.8905 97.5243 56.8506 96.8302 55.0706C95.7891 52.4242 91.317 44.808 89.9052 42.6735C89.0849 41.4606 89.4162 40.8541 89.2821 39.5545C89.1401 38.2629 88.446 36.0812 88.659 35.1911C88.872 34.309 88.73 31.513 88.659 30.8277C88.5801 30.1425 86.1035 29.796 85.5356 29.5833C84.9677 29.3628 82.9328 29.4415 81.7892 29.5833C80.6376 29.733 80.543 29.5833 80.543 29.5833C80.543 29.5833 78.9734 27.9529 78.6737 27.7167C78.374 27.4804 77.814 26.74 77.4275 27.0944C77.0331 27.4567 78.0506 28.9611 78.0506 28.9611L79.8173 31.9068C79.8804 32.017 79.9199 32.1431 79.9199 32.277V35.4904C79.9199 35.6873 79.8331 35.8764 79.6911 36.0181C79.5807 36.1205 79.4466 36.2623 79.2968 36.4435C78.9497 36.8766 78.9813 37.617 79.2968 37.6879C79.6123 37.7588 80.8348 39.1922 82.4201 40.1768C83.9897 41.1613 84.6365 43.7841 85.4962 44.871C86.3559 45.9579 88.1384 54.5271 88.3593 56.3465C88.5801 58.1659 90.41 63.1043 90.7018 63.506C91.0015 63.9077 91.601 67.8379 91.7745 68.2159C91.9401 68.594 91.4984 70.7127 91.5221 71.0277C91.5457 71.3979 90.6466 69.6258 88.8641 68.9248C87.9886 68.5782 86.4979 69.9251 85.5356 70.7127C84.5655 71.5003 85.157 72.3115 84.9125 73.8317C84.668 75.3439 84.9441 75.5408 85.5356 76.3205C86.1193 77.1081 86.5689 78.0848 86.7818 78.8094C86.9948 79.5419 89.2032 79.4631 89.9052 79.4316C90.4415 79.4159 91.7114 79.9121 92.2398 79.7467C92.8787 79.4474 91.4195 78.4943 91.4195 78.4471L89.6922 77.0136C89.4319 76.6907 89.7159 75.8637 90.1418 75.7534C90.4179 75.6826 90.6229 75.3124 90.686 75.4541C90.97 76.1 91.5615 75.9976 91.7666 76.1315C91.8139 76.163 91.8533 76.2103 91.8849 76.2575L92.3739 76.9506C92.6342 77.3208 92.6973 77.8012 92.5238 78.2266L92.3108 78.7464C92.3108 78.7464 92.295 78.7858 92.2871 78.7936C92.5711 78.7936 92.3976 78.8094 92.3976 78.8094V81.5109C92.3976 84.685 92.7604 87.8434 93.4702 90.9387L94.2669 94.3885L95.4736 99.8073C95.5052 99.9333 95.5288 100.051 95.5683 100.177C96.0178 101.776 99.2674 113.496 99.8826 116.82C100.537 120.388 99.1412 122.514 98.6364 123.05C98.1316 123.585 96.1677 125.247 94.89 126.169C93.6122 127.082 90.41 129.571 88.6511 131.777C87.1604 133.635 87.7362 137.676 87.957 138.897C87.9965 139.125 87.9255 139.361 87.7598 139.519L87.4601 139.818C87.4601 139.818 87.3891 139.897 87.3655 139.936L83.0748 146.671C83.0748 146.671 83.0275 146.734 83.0038 146.765L77.4275 152.956C77.4275 152.956 74.8326 155.665 73.681 155.445C72.7267 155.271 72.0641 154.956 71.867 154.854C71.8275 154.83 71.7881 154.814 71.7408 154.807C71.307 154.681 68.712 153.948 65.565 153.578C62.1104 153.176 59.0817 152.845 55.5797 152.956C52.0699 153.058 42.8102 152.231 41.2248 152.333C39.6395 152.436 36.3663 150.9 34.986 150.467C33.5978 150.034 32.4936 150.837 31.8626 151.711C31.2868 152.522 31.2395 155.578 31.2395 156.02C31.2395 156.059 31.2395 156.09 31.2316 156.13L30.0091 163.463C30.0012 163.518 29.9933 163.581 30.0091 163.636C30.0485 164.124 30.2615 166.471 30.6243 167.282C30.9714 168.046 32.5094 168.85 32.9826 169.086C33.0773 169.133 33.164 169.157 33.2666 169.157C33.7398 169.173 35.262 169.212 36.2401 169.157C37.4074 169.086 36.7449 168.448 36.8632 167.913C36.9578 167.479 36.0587 167.338 35.7353 167.298C35.6485 167.29 35.5775 167.267 35.4987 167.227L34.3708 166.66V166.038L34.915 165.495C34.9702 165.439 35.0175 165.376 35.0491 165.306L35.5696 164.266C35.6012 164.195 35.6485 164.132 35.7037 164.077L37.4389 162.344C37.4389 162.344 37.502 162.273 37.5257 162.234C37.6677 162.013 38.2119 161.186 38.7324 160.422C39.2688 159.627 40.8068 159.265 41.1617 159.194C41.2091 159.186 41.2564 159.178 41.3037 159.178H45.5786C45.5786 159.178 45.6102 159.178 45.6259 159.178C45.9335 159.201 49.2778 159.422 50.5949 159.8C51.9042 160.178 54.6648 160.958 54.9408 161.037C54.9566 161.037 54.9724 161.045 54.9882 161.052L63.7036 164.163L69.9425 166.652C69.9425 166.652 73.8624 167.999 75.5582 167.897C77.041 167.81 78.3109 167.401 78.6106 167.298C78.6579 167.282 78.6974 167.259 78.7447 167.235L81.7655 165.424C81.7655 165.424 81.8128 165.392 81.8365 165.376L90.5204 158.564C90.5204 158.564 90.5441 158.548 90.5519 158.54C91.0173 158.13 102.777 147.797 103.645 147.34C104.284 147.001 104.994 146.159 105.325 145.725C105.451 145.56 105.648 145.458 105.861 145.45C106.398 145.426 107.494 145.402 108.638 145.465C110.239 145.568 114.269 144.638 118 143.599C121.723 142.567 125.603 140.629 126.116 140.48C126.613 140.338 134.09 136.857 134.232 136.739C134.319 136.66 135.091 136.148 135.62 135.809C135.904 135.628 136.275 135.667 136.519 135.904L136.732 136.116C136.732 136.116 137.284 135.92 137.355 137.361C137.418 138.81 138.743 144.024 139.224 145.465C139.674 146.828 141.488 150.042 141.701 150.412C141.717 150.435 141.725 150.459 141.74 150.483C141.906 150.892 143.365 154.484 143.594 155.429C143.815 156.382 144.178 160.005 144.217 160.383C144.217 160.407 144.217 160.422 144.217 160.446V169.937C144.217 170.205 144.367 170.457 144.611 170.575L145.313 170.921C145.416 170.968 145.518 171 145.637 171H166.396C166.585 171 166.759 170.929 166.893 170.803C167.177 170.527 167.682 170.031 167.934 169.756C168.289 169.37 167.114 168.188 166.688 167.889L166.649 167.936Z" fill="#231F20"/>
<path d="M103.284 199.952C46.565 201.678 1.51564 156.807 0.038981 102.9C-1.53612 45.4871 44.8384 -0.331308 99.9215 0.00191638C153.861 -0.331308 198.252 42.8894 199.948 96.6143C201.743 153.346 156.989 198.316 103.284 199.952ZM99.7019 6.66641C48.0644 6.90875 6.61956 48.4937 6.73315 100.068C6.85431 152.392 48.8519 193.439 100.171 193.265C153.066 193.09 193.095 150.445 193.352 100.015C192.958 47.0093 150.256 6.42406 99.7094 6.66641H99.7019Z" fill="black"/>
</svg>
